<svg width="284" height="282" xmlns="http://www.w3.org/2000/svg" xmlns:xlink="http://www.w3.org/1999/xlink" xml:space="preserve" overflow="hidden"><defs><clipPath id="clip0"><rect x="170" y="316" width="284" height="282"/></clipPath><clipPath id="clip1"><rect x="171" y="316" width="283" height="282"/></clipPath><clipPath id="clip2"><rect x="171" y="316" width="283" height="282"/></clipPath><clipPath id="clip3"><rect x="171" y="316" width="283" height="282"/></clipPath></defs><g clip-path="url(#clip0)" transform="translate(-170 -316)"><g clip-path="url(#clip1)"><g clip-path="url(#clip2)"><g clip-path="url(#clip3)"><path d="M136.138 123.863 122.456 130.719 110.559 111.064C109.007 108.543 106.579 106.683 103.741 105.841L63.2414 94.2644C59.1986 93.374 54.9768 94.5358 51.9585 97.3693L38.2198 111.114 28.717 98.7764C24.9032 93.8378 17.8872 92.7566 12.7634 96.3177 8.14692 100.317 7.31608 107.166 10.8423 112.154L28.1001 135.169 28.3674 135.463C30.4868 137.962 33.5139 139.516 36.7804 139.781 40.0637 139.887 43.2673 138.759 45.7604 136.62L54.6639 127.717C54.7051 127.675 54.7256 127.687 54.7109 127.746L47.2203 156.058C46.4654 158.209 46.028 160.459 45.9219 162.738 46.1352 166.807 47.4859 170.736 49.82 174.076L65.2419 198.869 55.225 234.53C53.6461 240.563 56.9273 246.804 62.792 248.924 63.0208 249.04 63.2755 249.097 63.5322 249.088 63.6879 249.123 63.8671 249.191 64.0493 249.25 64.7128 249.508 65.4146 249.656 66.1261 249.688 71.4365 250.01 76.1423 246.292 77.0565 241.051L88.5392 200.852C89.2477 197.711 88.704 194.418 87.0234 191.672L83.8656 186.655C83.8304 186.602 83.848 186.584 83.9038 186.616L94.8284 193.173 94.8284 232.535C95.0143 237.426 97.9553 241.789 102.419 243.795 108.469 245.951 115.122 242.795 117.278 236.745 117.713 235.524 117.941 234.239 117.952 232.944L117.952 186.907C117.798 182.91 115.785 179.215 112.509 176.92L89.7318 163.143 98.0684 135.933 107.894 152.162C110.002 155.643 113.814 157.726 117.882 157.617 119.744 157.501 121.562 157.001 123.222 156.149L146.232 144.64C149.199 143.203 151.448 140.614 152.456 137.475 153.325 134.662 152.986 131.616 151.522 129.062 148.44 123.697 141.844 121.468 136.138 123.863ZM146.816 135.771C146.299 137.372 145.14 138.686 143.617 139.399L120.611 150.905C119.761 151.343 118.842 151.628 117.894 151.748 115.885 151.851 113.98 150.85 112.926 149.137L99.7399 127.347C99.2875 126.659 98.6057 126.154 97.8158 125.922 96.3197 125.591 94.821 126.466 94.3731 127.931L83.4426 163.619C83.1054 164.904 83.6239 166.261 84.7322 166.994L109.228 181.79C110.891 182.993 111.934 184.872 112.077 186.919L112.077 232.08C112 233.952 111.262 235.735 109.995 237.115 107.696 239.169 104.168 238.971 102.114 236.672 101.198 235.647 100.692 234.319 100.695 232.944L100.695 191.525C100.638 190.51 100.111 189.579 99.2699 189.008L76.2604 175.201C74.8695 174.366 73.065 174.817 72.2302 176.208 71.6603 177.158 71.6727 178.347 72.2625 179.284L81.9562 194.692C82.8175 196.083 83.1315 197.744 82.8375 199.353L71.346 239.612C71.3113 239.741 71.2837 239.873 71.2637 240.006 70.8328 242.359 68.6902 244.004 66.3053 243.812 66.176 243.777 66.0379 243.727 65.8999 243.68 65.4593 243.52 65.0063 243.395 64.5457 243.307 61.6766 242.145 60.1136 239.036 60.8914 236.04L71.2461 199.218C71.4241 198.421 71.3061 197.585 70.9142 196.868L54.8049 170.963C53.0398 168.563 51.9961 165.71 51.7969 162.738 51.9138 161.032 52.2678 159.351 52.8486 157.744L63.2062 118.616C63.6218 117.048 62.6874 115.44 61.1191 115.024 61.1068 115.021 61.0947 115.018 61.0824 115.015 60.0457 114.836 58.985 115.15 58.2124 115.864L41.6068 132.481C40.22 133.519 38.5092 134.029 36.7804 133.921 35.1701 133.598 33.7187 132.733 32.6679 131.471L15.6304 108.761C13.9293 106.372 14.1986 103.105 16.2679 101.026 18.8277 99.3439 22.255 99.9467 24.0875 102.401L35.5937 117.362C36.1101 118.033 36.8903 118.448 37.7351 118.502 38.5782 118.559 39.4048 118.247 39.9999 117.647L56.1063 101.523C57.6758 100.14 59.7993 99.5654 61.852 99.969L102.225 111.502C103.633 111.975 104.828 112.932 105.6 114.201L118.819 136.068C119.611 137.373 121.27 137.855 122.638 137.175L138.588 129.191C141.519 128.113 144.802 129.285 146.387 131.976 147.051 133.127 147.206 134.501 146.816 135.771Z" fill="#000000" fill-rule="nonzero" fill-opacity="1" transform="matrix(1.00355 0 0 1 171 316)"/><path d="M91.7352 97.6924C101.24 99.902 110.737 93.988 112.946 84.4831 113.559 81.8479 113.558 79.1069 112.944 76.4719 111.142 70.104 106.164 65.1273 99.7957 63.3266 90.2902 61.1191 80.7951 67.0352 78.5875 76.5407 77.9762 79.1736 77.9771 81.9116 78.5899 84.5442 80.3903 90.913 85.367 95.8909 91.7352 97.6924ZM92.5783 69.1781C98.8539 67.4333 105.356 71.1063 107.1 77.382 107.677 79.4553 107.675 81.6466 107.095 83.7188 105.818 87.5625 102.802 90.5781 98.9585 91.8556 92.6825 93.5996 86.1813 89.926 84.4373 83.65 83.8627 81.5823 83.863 79.3971 84.4384 77.3297 85.7133 73.4804 88.7307 70.4586 92.5783 69.1781Z" fill="#000000" fill-rule="nonzero" fill-opacity="1" transform="matrix(1.00355 0 0 1 171 316)"/><path d="M182.804 68.3086C192.308 70.5179 201.805 64.6033 204.014 55.0984 204.626 52.4643 204.626 49.7248 204.012 47.0911 202.21 40.7226 197.233 35.7453 190.864 33.9428 181.357 31.7353 171.86 37.6529 169.653 47.1601 169.042 49.793 169.043 52.5307 169.655 55.1633 171.457 61.5312 176.435 66.5079 182.804 68.3086ZM183.644 39.7943C189.918 38.0497 196.418 41.7213 198.163 47.9955 198.738 50.0644 198.737 52.2514 198.161 54.3203 196.883 58.1646 193.868 61.1811 190.024 62.4601 183.748 64.2023 177.247 60.5269 175.505 54.2503 174.931 52.1841 174.932 50.0004 175.507 47.9341 176.784 44.0898 179.8 41.0733 183.644 39.7943Z" fill="#000000" fill-rule="nonzero" fill-opacity="1" transform="matrix(1.00355 0 0 1 171 316)"/><path d="M269.013 67.7006C264.338 63.7009 257.376 63.9561 253.007 68.2881L242.984 78.3108 227.879 67.2306C225.032 65.0342 221.267 64.4252 217.871 65.612L177.678 77.0859C175.932 77.6898 174.364 78.7185 173.116 80.0792L159.098 94.0999 141.27 94.0999C136.4 94.284 132.054 97.2125 130.055 101.658 127.9 107.683 131.037 114.314 137.062 116.468 138.281 116.904 139.564 117.133 140.859 117.145L163.745 117.145C166.607 117.019 169.367 116.046 171.676 114.351L172.111 113.996 184.219 101.884 193.993 130.745 169.1 147.169C165.436 149.646 163.368 153.887 163.672 158.299L163.701 158.687 169.42 198.751C170.264 204.455 175.146 208.687 180.912 208.712L182.057 208.712 182.383 208.695C185.442 208.285 188.207 206.662 190.056 204.191 191.925 201.749 192.768 198.674 192.406 195.62L187.53 162.558 200.793 153.825C200.837 153.793 200.857 153.81 200.834 153.86L198.845 158.196 198.74 158.469C198.006 160.36 197.763 162.405 198.035 164.415L203.757 204.474C204.595 210.178 209.477 214.413 215.242 214.438L216.388 214.438 216.72 214.42C223.052 213.524 227.505 207.729 226.74 201.38L221.699 163.857 234.524 134.852C235.441 132.649 235.916 130.288 235.919 127.902 235.772 125.712 235.354 123.549 234.674 121.463L227.727 95.3983C227.727 95.3542 227.727 95.3395 227.774 95.3689L237.074 102.342C241.757 105.485 247.964 105.1 252.223 101.403L269.389 84.2328C273.86 79.9546 274.015 72.8626 269.737 68.3923 269.507 68.1512 269.265 67.9203 269.013 67.7006ZM265.236 80.0792 248.266 97.0697C246.065 98.9573 242.878 99.153 240.464 97.5485L224.443 85.5312C223.142 84.5606 221.302 84.8277 220.331 86.1278 219.795 86.846 219.616 87.7696 219.845 88.6361L229.043 123.122C229.564 124.699 229.9 126.33 230.044 127.984 230.025 129.524 229.721 131.048 229.149 132.478L215.988 162.238C215.793 162.739 215.717 163.278 215.765 163.813L220.9 202.135C221.2 205.162 219.175 207.931 216.2 208.562L215.257 208.562C212.411 208.55 210.001 206.46 209.585 203.645L203.863 163.619C203.719 162.562 203.855 161.486 204.259 160.499L210.428 147.042C210.889 145.944 210.731 144.683 210.014 143.732 209.042 142.638 207.415 142.425 206.195 143.232L182.73 158.684C181.824 159.351 181.334 160.445 181.441 161.565L186.581 196.413C186.734 197.925 186.294 199.437 185.356 200.631 184.506 201.79 183.245 202.578 181.831 202.834L180.894 202.834C178.049 202.819 175.639 200.731 175.219 197.917L169.55 158.079C169.414 155.779 170.417 153.56 172.232 152.142L199.124 134.402C200.197 133.635 200.668 132.273 200.299 131.007L188.282 95.5216C187.762 93.9847 186.095 93.1605 184.558 93.6804 184.13 93.8255 183.74 94.0676 183.42 94.3877L168.175 109.628C166.874 110.566 165.343 111.134 163.745 111.27L141.714 111.27C139.859 111.195 138.09 110.467 136.72 109.213 134.686 106.926 134.891 103.422 137.179 101.388 138.192 100.486 139.502 99.9875 140.859 99.9866L160.314 99.9866C161.084 99.9449 161.817 99.6412 162.391 99.1259L177.287 84.2269C177.861 83.5466 178.598 83.0223 179.428 82.7024L219.581 71.2285C221.192 70.5858 223.025 70.8596 224.378 71.9453L241.542 84.5354C242.724 85.3535 244.317 85.231 245.361 84.2416L257.325 72.2625C259.529 70.0588 263.102 70.0588 265.305 72.2622 266.336 73.293 266.928 74.6827 266.957 76.14 266.932 77.6302 266.312 79.0487 265.236 80.0792Z" fill="#000000" fill-rule="nonzero" fill-opacity="1" transform="matrix(1.00355 0 0 1 171 316)"/></g></g></g></g></svg>