<svg width="185" height="184" xmlns="http://www.w3.org/2000/svg" xmlns:xlink="http://www.w3.org/1999/xlink" xml:space="preserve" overflow="hidden"><defs><clipPath id="clip0"><rect x="1032" y="364" width="185" height="184"/></clipPath><clipPath id="clip1"><rect x="1033" y="365" width="184" height="183"/></clipPath><clipPath id="clip2"><rect x="1033" y="365" width="184" height="183"/></clipPath><clipPath id="clip3"><rect x="1033" y="365" width="184" height="183"/></clipPath></defs><g clip-path="url(#clip0)" transform="translate(-1032 -364)"><g clip-path="url(#clip1)"><g clip-path="url(#clip2)"><g clip-path="url(#clip3)"><path d="M26.6875 123.906 34.3125 123.906 34.3125 131.531 26.6875 131.531 26.6875 123.906ZM26.6875 108.656 34.3125 108.656 34.3125 116.281 26.6875 116.281 26.6875 108.656ZM26.6875 93.4062 34.3125 93.4062 34.3125 101.031 26.6875 101.031 26.6875 93.4062ZM41.9375 123.906 49.5625 123.906 49.5625 131.531 41.9375 131.531 41.9375 123.906ZM41.9375 108.656 49.5625 108.656 49.5625 116.281 41.9375 116.281 41.9375 108.656ZM41.9375 93.4062 49.5625 93.4062 49.5625 101.031 41.9375 101.031 41.9375 93.4062ZM15.25 150.594 34.3125 150.594 34.3125 139.156 41.9375 139.156 41.9375 150.594 61 150.594 61 81.9688 15.25 81.9688 15.25 150.594Z" fill="#000000" fill-rule="nonzero" fill-opacity="1" transform="matrix(1.00546 0 0 1 1033 365)"/><path d="M80.0625 123.906 87.6875 123.906 87.6875 131.531 80.0625 131.531 80.0625 123.906ZM80.0625 108.656 87.6875 108.656 87.6875 116.281 80.0625 116.281 80.0625 108.656ZM95.3125 123.906 102.938 123.906 102.938 131.531 95.3125 131.531 95.3125 123.906ZM95.3125 108.656 102.938 108.656 102.938 116.281 95.3125 116.281 95.3125 108.656ZM68.625 150.594 87.6875 150.594 87.6875 139.156 95.3125 139.156 95.3125 150.594 114.375 150.594 114.375 97.2188 68.625 97.2188 68.625 150.594Z" fill="#000000" fill-rule="nonzero" fill-opacity="1" transform="matrix(1.00546 0 0 1 1033 365)"/><path d="M156.312 57.1875 148.688 57.1875 148.688 49.5625 156.312 49.5625 156.312 57.1875ZM156.312 70.5312 148.688 70.5312 148.688 62.9062 156.312 62.9062 156.312 70.5312ZM156.312 85.7812 148.688 85.7812 148.688 78.1562 156.312 78.1562 156.312 85.7812ZM156.312 101.031 148.688 101.031 148.688 93.4062 156.312 93.4062 156.312 101.031ZM156.312 116.281 148.688 116.281 148.688 108.656 156.312 108.656 156.312 116.281ZM156.312 131.531 148.688 131.531 148.688 123.906 156.312 123.906 156.312 131.531ZM141.062 57.1875 133.438 57.1875 133.438 49.5625 141.062 49.5625 141.062 57.1875ZM141.062 70.5312 133.438 70.5312 133.438 62.9062 141.062 62.9062 141.062 70.5312ZM141.062 85.7812 133.438 85.7812 133.438 78.1562 141.062 78.1562 141.062 85.7812ZM141.062 101.031 133.438 101.031 133.438 93.4062 141.062 93.4062 141.062 101.031ZM141.062 116.281 133.438 116.281 133.438 108.656 141.062 108.656 141.062 116.281ZM141.062 131.531 133.438 131.531 133.438 123.906 141.062 123.906 141.062 131.531ZM122 36.2188 122 150.594 141.062 150.594 141.062 139.156 148.688 139.156 148.688 150.594 167.75 150.594 167.75 41.9375 122 36.2188Z" fill="#000000" fill-rule="nonzero" fill-opacity="1" transform="matrix(1.00546 0 0 1 1033 365)"/><path d="M68.625 59.0938 76.25 59.0938 76.25 66.7188 68.625 66.7188 68.625 59.0938ZM68.625 43.8438 76.25 43.8438 76.25 51.4688 68.625 51.4688 68.625 43.8438ZM61 51.4688 53.375 51.4688 53.375 43.8438 61 43.8438 61 51.4688ZM61 66.7188 53.375 66.7188 53.375 59.0938 61 59.0938 61 66.7188ZM68.625 89.5938 87.6875 89.5938 87.6875 32.4062 41.9375 32.4062 41.9375 74.3438 68.625 74.3438 68.625 89.5938Z" fill="#000000" fill-rule="nonzero" fill-opacity="1" transform="matrix(1.00546 0 0 1 1033 365)"/></g></g></g></g></svg>